# xmcd
#
# Track frame offsets: 
#        150
#        12480
#        25930
#        39300
#        52875
#        66105
#        76655
#        94851
#        107663
#        122476
#        141948
#        157027
#
# Disc length: 2291 seconds
#
# Revision: 4
# Processed by: cddbd v1.5.2PL0 Copyright (c) Steve Scherf et al.
# Submitted via: ExactAudioCopy v1.1
#
DISCID=9108f10c
DTITLE=Otis Clay - The Complete Otis Clay on Hi Records
DYEAR=2000
DGENRE=Soul
TTITLE0=The Woman Don't Live Here No More (mono)
TTITLE1=You Can't Escape The Hands Of Love (mono)
TTITLE2=You Did Something To Me (mono)
TTITLE3=It Was Jealousy (mono)
TTITLE4=Pussy Footing Around
TTITLE5=Too Much Mystery
TTITLE6=I Can't Take It
TTITLE7=I've Got To Find A Way (To Get You Back)
TTITLE8=Slow And Easy
TTITLE9=House Ain't A Home (Without A Woman)
TTITLE10=Keep On Loving Me
TTITLE11=Born To Be With You
EXTD=YEAR: 2000
EXTT0=
EXTT1=
EXTT2=
EXTT3=
EXTT4=
EXTT5=
EXTT6=
EXTT7=
EXTT8=
EXTT9=
EXTT10=
EXTT11=
PLAYORDER=
